<?xml version="1.0" encoding="UTF-8" standalone="no"?>
<!-- Created with Inkscape (http://www.inkscape.org/) -->
<!-- Copied from https://upload.wikimedia.org/wikipedia/commons/d/d0/Food-Jelly.svg -->
<svg xmlns:dc="http://purl.org/dc/elements/1.1/"
  xmlns:cc="http://creativecommons.org/ns#"
  xmlns:rdf="http://www.w3.org/1999/02/22-rdf-syntax-ns#"
  xmlns:svg="http://www.w3.org/2000/svg"
  xmlns="http://www.w3.org/2000/svg"
  xmlns:sodipodi="http://sodipodi.sourceforge.net/DTD/sodipodi-0.dtd"
  xmlns:inkscape="http://www.inkscape.org/namespaces/inkscape" width="48" height="48" id="svg3821" sodipodi:version="0.32" inkscape:version="0.46" version="1.0" sodipodi:docname="jelly.svg" inkscape:output_extension="org.inkscape.output.svg.inkscape" inkscape:export-filename="/home/rugby471/Desktop/jelly.png" inkscape:export-xdpi="90" inkscape:export-ydpi="90">
  <defs id="defs3823">
    <inkscape:perspective sodipodi:type="inkscape:persp3d" inkscape:vp_x="0 : 526.18109 : 1" inkscape:vp_y="0 : 1000 : 0" inkscape:vp_z="744.09448 : 526.18109 : 1" inkscape:persp3d-origin="372.04724 : 350.78739 : 1" id="perspective3829"/>
    <inkscape:perspective id="perspective3838" inkscape:persp3d-origin="372.04724 : 350.78739 : 1" inkscape:vp_z="744.09448 : 526.18109 : 1" inkscape:vp_y="0 : 1000 : 0" inkscape:vp_x="0 : 526.18109 : 1" sodipodi:type="inkscape:persp3d"/>
  </defs>
  <sodipodi:namedview id="base" pagecolor="#ffffff" bordercolor="#666666" borderopacity="1.0" gridtolerance="10000" guidetolerance="10" objecttolerance="10" inkscape:pageopacity="0.0" inkscape:pageshadow="2" inkscape:zoom="7.9195959" inkscape:cx="40.455943" inkscape:cy="17.409987" inkscape:document-units="px" inkscape:current-layer="layer1" showgrid="false" showguides="true" inkscape:guide-bbox="true"/>
  <metadata id="metadata3826">
    <rdf:RDF>
      <cc:Work rdf:about="">
        <dc:format>image/svg+xml</dc:format>
        <dc:type rdf:resource="http://purl.org/dc/dcmitype/StillImage"/>
        <dc:title>Tango Style Jelly</dc:title>
        <dc:creator>
          <cc:Agent>
            <dc:title>Andrew Higginson</dc:title>
          </cc:Agent>
        </dc:creator>
        <cc:license rdf:resource="http://creativecommons.org/licenses/publicdomain/"/>
      </cc:Work>
      <cc:License rdf:about="http://creativecommons.org/licenses/publicdomain/">
        <cc:permits rdf:resource="http://creativecommons.org/ns#Reproduction"/>
        <cc:permits rdf:resource="http://creativecommons.org/ns#Distribution"/>
        <cc:permits rdf:resource="http://creativecommons.org/ns#DerivativeWorks"/>
      </cc:License>
    </rdf:RDF>
  </metadata>
  <g inkscape:label="Layer 1" inkscape:groupmode="layer" id="layer1">
    <g id="g4524" transform="matrix(0.19162, 0, 0, 0.19162, -45.6621, -70.6637)">
      <path sodipodi:nodetypes="cccc" id="path3856" d="M 311.42857,413.79075 C 331.43099,399.01144 349.24641,416.57653 349.28572,429.86218 L 311.96429,422.18361 L 311.42857,413.79075 z" style="fill: rgb(239, 41, 41); fill-rule: evenodd; stroke: rgb(164, 0, 0); stroke-width: 7; stroke-linecap: butt; stroke-linejoin: miter; stroke-miterlimit: 4; stroke-dasharray: none; stroke-opacity: 1;"/>
      <path sodipodi:nodetypes="ccccc" id="path3858" d="M 339.64286,411.82647 C 352.80888,401.31336 372.74261,407.3473 377.14286,413.25504 L 376.42857,439.68361 L 340.89286,438.43361 L 339.64286,411.82647 z" style="fill: rgb(239, 41, 41); fill-rule: evenodd; stroke: rgb(164, 0, 0); stroke-width: 7; stroke-linecap: butt; stroke-linejoin: miter; stroke-miterlimit: 4; stroke-dasharray: none; stroke-opacity: 1;"/>
      <path sodipodi:nodetypes="cccc" id="path3860" d="M 406.42857,416.46932 C 383.78197,396.09819 364.28502,423.70731 365,430.04075 L 395.71429,441.29075 L 406.42857,416.46932 z" style="fill: rgb(239, 41, 41); fill-rule: evenodd; stroke: rgb(164, 0, 0); stroke-width: 7; stroke-linecap: butt; stroke-linejoin: miter; stroke-miterlimit: 4; stroke-dasharray: none; stroke-opacity: 1;"/>
      <path sodipodi:nodetypes="cccscc" id="path3844" d="M 310.71429,414.50504 C 259.06663,407.40022 244.22434,523.30747 242.85714,547.00504 C 250.33329,558.87019 263.77808,560.78761 276.78571,563.43361 C 273.87302,561.53349 273.22107,556.28575 274.5753,548.0673 C 278.25746,525.72133 296.41416,428.55591 325,422.71932 C 321.9161,419.23545 318.04359,416.10207 310.71429,414.50504 z" style="fill: rgb(239, 41, 41); fill-rule: evenodd; stroke: rgb(164, 0, 0); stroke-width: 7; stroke-linecap: butt; stroke-linejoin: miter; stroke-miterlimit: 4; stroke-dasharray: none; stroke-opacity: 1;"/>
      <path sodipodi:nodetypes="ccscccc" id="path3848" d="M 323.92857,423.43361 C 334.33483,423.82543 344.86937,423.78968 352.5,433.43361 C 348.5329,437.82683 343.42103,441.60262 342.28422,446.87105 C 332.51081,492.16495 321.15163,556.5304 327.14286,567.00504 C 305.24447,575.88782 287.50387,576.07705 276.07143,563.07647 C 272.95187,560.24364 273.30547,553.93766 273.92857,547.36218 C 286.85262,494.3258 297.33905,433.65153 323.92857,423.43361 z" style="fill: rgb(239, 41, 41); fill-rule: evenodd; stroke: rgb(164, 0, 0); stroke-width: 7; stroke-linecap: butt; stroke-linejoin: miter; stroke-miterlimit: 4; stroke-dasharray: none; stroke-opacity: 1;"/>
      <path sodipodi:nodetypes="ccccsc" id="path3850" d="M 348.21429,437.00504 C 357.07288,426.23386 382.1203,430.27035 383.57143,437.00504 C 403.23691,489.54635 409.03132,555.18997 407.5,569.1479 C 386.15715,582.65744 349.19892,582.53794 326.07143,569.1479 C 325.26547,536.32003 333.72634,480.45685 341.34109,449.47035 C 342.76121,443.69152 345.73582,439.59255 348.21429,437.00504 z" style="fill: rgb(239, 41, 41); fill-rule: evenodd; stroke: rgb(164, 0, 0); stroke-width: 7; stroke-linecap: butt; stroke-linejoin: miter; stroke-miterlimit: 4; stroke-dasharray: none; stroke-opacity: 1;"/>
      <path style="fill: rgb(239, 41, 41); fill-rule: evenodd; stroke: rgb(164, 0, 0); stroke-width: 7; stroke-linecap: butt; stroke-linejoin: miter; stroke-miterlimit: 4; stroke-dasharray: none; stroke-opacity: 1;" d="M 404.22405,426.6479 C 395.6035,424.53972 385.42611,422.36111 377.79548,432.00504 C 381.76258,436.39826 386.87445,440.17405 388.01126,445.44248 C 397.78467,490.73638 412.71528,557.24469 406.72405,567.71933 C 428.97958,574.81639 445.64875,570.00562 454.22405,561.6479 C 457.34361,558.81507 454.49001,552.50909 453.86691,545.93361 C 440.94286,492.89723 430.81357,436.86582 404.22405,426.6479 z" id="path3852" sodipodi:nodetypes="ccscccc"/>
      <path style="fill: rgb(239, 41, 41); fill-rule: evenodd; stroke: rgb(164, 0, 0); stroke-width: 7; stroke-linecap: butt; stroke-linejoin: miter; stroke-miterlimit: 4; stroke-dasharray: none; stroke-opacity: 1;" d="M 409.99999,415.93361 C 419.88632,413.40136 435.33031,420.82232 437.98362,425.07767 C 462.09438,463.74635 480.49225,519.10339 483.57143,539.50504 C 485.02385,552.79876 468.72191,559.00189 455.71428,561.64789 C 458.62697,559.74777 455.6588,551.40735 453.28184,543.42444 C 445.67111,517.86419 435.01441,428.55591 395.71428,424.14789 C 399.0889,420.79323 402.44419,417.42997 409.99999,415.93361 z" id="path3854" sodipodi:nodetypes="csccscc"/>
      <path d="M 306.03125,421.1875 C 296.74254,421.25773 288.9679,426.44733 281.6875,436.09375 C 274.4071,445.74017 268.30128,459.55326 263.625,474.25 C 254.75478,502.12755 250.96885,532.69498 250.0625,544.96875 C 252.66491,548.30894 255.85641,550.43246 260.09375,552.09375 C 262.04056,552.85702 264.31874,553.42422 266.59375,554 C 266.6089,551.52471 266.74547,549.07498 266.96875,546.71875 C 266.99664,546.38208 267.04886,546.04788 267.125,545.71875 C 268.50979,540.036 269.88852,534.20444 271.25,528.375 C 274.5177,511.65433 279.39948,490.09646 286.8125,468.3125 C 287.34525,466.66166 287.82528,465.46573 288.21875,464.3125 C 288.22895,464.28118 288.23936,464.24993 288.25,464.21875 C 289.55171,460.58024 290.85361,456.77545 292.40625,453.0625 C 293.22395,451.06141 294.07426,449.00681 295.03125,446.9375 C 296.36019,444.0639 297.72244,441.30921 299.21875,438.6875 C 299.44557,438.27851 299.59557,438.02931 299.71875,437.8125 C 299.73945,437.79154 299.76029,437.7707 299.78125,437.75 C 300.5377,436.46118 301.29308,435.20527 302.09375,434 C 304.99404,429.42467 308.15299,425.28956 311.78125,422.0625 C 311.05871,421.83564 310.3535,421.60594 309.46875,421.40625 C 308.28487,421.25646 307.13793,421.17914 306.03125,421.1875 z M 412,422.71875 C 422.17589,428.80477 429.2455,439.97389 435.0625,453.21875 C 445.80133,476.31786 451.64992,504.79374 456,524.65625 C 457.32213,530.25275 458.61514,535.64173 459.96875,541.25 C 459.98001,541.31236 459.99043,541.37486 460,541.4375 C 460.00278,541.44684 459.99722,541.45941 460,541.46875 C 461.05314,545.00336 462.23679,548.771 463.0625,552.4375 C 466.16869,551.37596 469.05513,550.11868 471.28125,548.6875 C 475.54262,545.94785 477.00031,543.97118 476.59375,540.25 C 473.84991,522.07023 455.40091,466.26134 432.03125,428.78125 C 432.49744,429.52892 431.62551,428.35849 430.125,427.40625 C 428.62449,426.45401 426.51239,425.37347 424.21875,424.5 C 419.73692,422.79322 414.57635,422.15031 412,422.71875 z M 325.375,430.53125 C 321.5147,432.36171 317.59132,436.0146 313.78125,441.75 C 313.03486,442.92354 312.41523,443.85416 311.90625,444.75 C 311.88555,444.77096 311.86471,444.7918 311.84375,444.8125 C 311.73193,445.00301 311.59544,445.29351 311.40625,445.625 C 310.12934,447.92742 308.90527,450.25624 307.71875,452.8125 C 306.97011,454.42537 306.20535,456.3771 305.34375,458.4375 C 304.00276,461.71921 302.71686,465.15437 301.46875,468.8125 C 301.45855,468.84382 301.44814,468.87507 301.4375,468.90625 C 300.96462,470.22803 300.49976,471.52759 300.0625,472.8125 C 294.44655,490.21488 289.71856,510.82389 284.875,531.5625 C 283.54567,538.36467 281.99555,545.99053 281.46875,549.1875 C 280.86023,552.88042 280.798,555.70869 281,557.15625 C 281.0874,557.7826 281.14864,557.915 281.15625,557.96875 C 281.1667,557.97913 281.17712,557.98955 281.1875,558 C 281.77551,558.47764 282.2821,559.04755 282.6875,559.6875 C 286.85512,563.8023 291.57896,565.81134 297.90625,566.1875 C 303.70461,566.53222 310.8619,565.25167 318.9375,562.5 C 318.26274,556.99196 318.50853,550.38364 319.21875,542.25 C 320.03738,532.87472 321.54054,521.81796 323.375,510.09375 C 326.39932,487.04982 330.47579,464.31526 334.53125,447.8125 C 335.29127,444.7198 336.47123,442.05499 337.65625,439.84375 C 339.00371,437.32941 340.48358,435.29865 342,433.53125 C 340.62204,432.77674 339.19982,432.17535 337.53125,431.75 C 334.15702,430.88985 329.96166,430.70802 325.375,430.53125 z M 391.125,431.90625 C 390.40231,431.97325 389.82789,432.25567 389.1875,432.40625 C 389.53271,433.04322 389.79335,433.78448 390.03125,434.5625 L 390.125,434.53125 C 390.29176,434.97681 390.31856,435.07376 390.40625,435.34375 C 392.26209,437.64559 394.06595,440.36411 394.84375,443.96875 C 395.90734,448.89789 397.13328,454.62482 398.28125,459.9375 C 405.72886,486.25826 410.33421,513.08326 412.6875,533.96875 C 412.69802,533.98953 412.70844,534.01036 412.71875,534.03125 C 412.72092,534.05049 412.71659,534.07452 412.71875,534.09375 C 414.4534,545.80342 415.49742,555.11999 414.84375,562.5625 C 431.29567,566.27547 442.73425,562.43745 448.59375,557.25 C 448.58865,556.96474 448.6248,556.83474 448.53125,556.1875 C 448.2598,554.3094 447.49789,551.11726 447.0625,547.59375 C 446.84135,546.68619 446.65627,545.86945 446.46875,545.09375 C 446.45718,545.021 446.44677,544.94808 446.4375,544.875 C 446.42564,544.83428 446.41811,544.7597 446.40625,544.71875 C 446.38305,544.61507 446.36221,544.51088 446.34375,544.40625 C 445.05971,539.92458 443.73843,534.16704 442.3125,527.65625 C 436.1679,501.64647 430.06918,476.64742 422.25,458.84375 C 416.33422,446.11897 409.08807,436.95015 401.40625,433.21875 C 397.56605,432.31433 393.93679,431.64556 391.125,431.90625 z M 365.84375,437.625 C 362.28814,437.66747 358.81011,438.2797 356.46875,439.4375 C 353.52006,442.56334 350.83785,445.07962 349.8125,446.78125 C 349.4153,447.44042 349.21012,447.94928 349.125,448.34375 C 344.85422,468.13625 340.46355,491.34368 337.1875,512.28125 C 334.77074,530.69586 333.24014,548.68987 333.15625,563.15625 C 333.16531,563.20339 333.32316,563.7138 333.21875,563.53125 C 333.51314,564.03192 333.74408,564.56729 333.90625,565.125 C 353.38829,574.09567 382.63225,573.95115 400.28125,564.96875 C 400.38417,564.74409 400.49891,564.52503 400.625,564.3125 C 400.72903,558.43643 400.23695,548.68949 398.8125,535.9375 C 398.81248,535.92708 398.81248,535.91667 398.8125,535.90625 C 398.80981,535.88816 398.81519,535.86185 398.8125,535.84375 C 395.69798,514.9152 389.95592,487.67297 384.625,463 C 384.6131,462.95826 384.60566,462.91673 384.59375,462.875 C 382.58586,455.83971 380.35774,448.94893 377.9375,442.25 C 376.95735,441.20191 375.78892,440.00975 374.5625,438.75 C 372.29306,438.04439 369.17265,437.58524 365.84375,437.625 z" id="path4516" style="opacity: 0.457265; fill: none; fill-rule: evenodd; stroke: rgb(255, 255, 255); stroke-width: 7; stroke-linecap: butt; stroke-linejoin: miter; stroke-miterlimit: 4; stroke-dasharray: none; stroke-opacity: 1;" inkscape:original="M 305.96875 414.1875 C 258.14145 414.5491 244.16822 524.04298 242.84375 547 C 250.24143 558.74059 263.49551 560.73949 276.375 563.34375 C 276.27845 563.23681 276.15816 563.17129 276.0625 563.0625 C 272.94293 560.22966 273.3144 553.95048 273.9375 547.375 C 275.33277 541.64924 276.70072 535.79945 278.0625 529.96875 C 281.295 513.42818 286.1789 491.89269 293.4375 470.5625 C 293.88571 469.17362 294.38314 467.91251 294.84375 466.5625 C 296.16211 462.87745 297.44202 459.17681 298.875 455.75 C 299.69352 453.74689 300.51244 451.74013 301.375 449.875 C 302.64047 447.13864 303.94077 444.55969 305.3125 442.15625 C 305.47578 441.86183 305.64806 441.57067 305.8125 441.28125 C 306.50764 440.09689 307.21262 438.96618 307.9375 437.875 C 313.11774 429.70294 318.7959 423.98549 325 422.71875 C 321.9161 419.23487 318.04805 416.09703 310.71875 414.5 C 309.10476 414.27797 307.51157 414.17584 305.96875 414.1875 z M 307.9375 437.875 C 307.22316 439.0019 306.50648 440.05979 305.8125 441.28125 C 305.64573 441.56538 305.47761 441.86695 305.3125 442.15625 C 303.96675 444.58279 302.64167 447.14606 301.375 449.875 C 300.50872 451.74132 299.70366 453.76837 298.875 455.75 C 297.4755 459.17489 296.13162 462.78785 294.84375 466.5625 C 294.36956 467.88793 293.89663 469.21331 293.4375 470.5625 C 287.67977 488.40421 282.90168 509.24891 278.0625 529.96875 C 276.7426 536.72265 275.15346 544.47613 274.5625 548.0625 C 273.20827 556.28095 273.86856 561.5374 276.78125 563.4375 C 276.64473 563.40973 276.51161 563.37137 276.375 563.34375 C 287.62606 575.80622 304.87399 575.75618 326.09375 567.375 C 326.07648 566.21215 326.12088 564.90167 326.125 563.6875 C 324.42929 554.88665 326.64217 534.44521 330.28125 511.1875 C 333.27632 488.36644 337.38554 465.57578 341.34375 449.46875 C 341.93677 447.05561 342.82667 444.9958 343.8125 443.15625 C 345.18747 440.59057 346.77525 438.50701 348.21875 437 C 349.36001 435.61234 350.78143 434.48452 352.375 433.5625 C 352.41478 433.51881 352.46044 433.48131 352.5 433.4375 C 344.86937 423.79357 334.34377 423.82931 323.9375 423.4375 C 317.82261 425.78735 312.57458 430.89467 307.9375 437.875 z M 352.375 433.5625 C 349.42272 436.80464 345.8878 439.71216 343.8125 443.15625 C 343.11141 444.31975 342.56545 445.55789 342.28125 446.875 C 337.98094 466.80437 333.5825 490.08885 330.28125 511.1875 C 327.81032 530.01486 326.17607 548.6492 326.125 563.6875 C 326.38711 565.04785 326.70708 566.21471 327.15625 567 C 326.79515 567.14647 326.45258 567.23327 326.09375 567.375 C 326.10209 567.93676 326.04902 568.60715 326.0625 569.15625 C 349.18999 582.54629 386.15715 582.6658 407.5 569.15625 C 407.53097 568.87393 407.50633 568.26157 407.53125 567.9375 C 407.25329 567.85204 406.99848 567.80795 406.71875 567.71875 C 407.12081 567.01581 407.4035 566.02805 407.625 564.84375 C 407.76126 558.46428 407.26299 548.29521 405.78125 535.0625 C 407.76642 548.45644 408.67358 559.23728 407.625 564.84375 C 407.60194 565.92339 407.59453 567.11475 407.53125 567.9375 C 429.36799 574.65106 445.75123 569.90892 454.21875 561.65625 C 457.3383 558.82343 454.4981 552.51298 453.875 545.9375 C 453.67107 545.10062 453.48387 544.27568 453.28125 543.4375 C 455.65821 551.42041 458.63143 559.75613 455.71875 561.65625 C 468.72638 559.01025 485.01491 552.79369 483.5625 539.5 C 480.48332 519.09835 462.07952 463.73118 437.96875 425.0625 C 435.31544 420.80715 419.88632 413.40524 410 415.9375 C 402.4442 417.43386 399.09336 420.80159 395.71875 424.15625 C 398.62964 424.48274 401.33049 425.39611 403.9375 426.59375 C 404.0287 426.61597 404.1279 426.63403 404.21875 426.65625 C 414.4341 430.58184 422.20808 441.34926 428.65625 456.03125 C 438.86438 477.98882 444.79386 506.23756 449.15625 526.15625 C 450.48095 531.76364 451.80005 537.28724 453.15625 542.90625 C 451.95307 538.77565 450.617 532.82602 449.15625 526.15625 C 443.00673 500.12565 436.89596 474.79243 428.65625 456.03125 C 422.29102 442.3397 414.25373 431.33293 403.9375 426.59375 C 395.37578 424.50764 385.33146 422.45771 377.78125 432 C 377.94855 432.18527 378.14152 432.34802 378.3125 432.53125 C 381.18547 433.70502 383.18482 435.24721 383.5625 437 C 383.75308 437.50919 383.90577 438.0509 384.09375 438.5625 C 385.94719 440.66808 387.44515 442.86611 388 445.4375 C 389.06172 450.35795 390.28749 456.08412 391.4375 461.40625 C 398.83609 487.43656 403.4271 514.20662 405.75 534.875 C 402.578 513.54011 396.78524 486.155 391.4375 461.40625 C 389.23507 453.65749 386.82567 445.99737 384.09375 438.5625 C 382.30989 436.53597 380.21714 434.57228 378.3125 432.53125 C 371.56889 429.7761 359.9316 429.19037 352.375 433.5625 z " inkscape:radius="-7" sodipodi:type="inkscape:offset"/>
      <path sodipodi:nodetypes="cccccc" id="path4518" d="M 347.14286,420.3979 L 346.60714,415.39789 C 354.32781,412.47902 357.88351,412.1137 366.25,414.68361 C 361.98717,416.84805 360.2363,420.44789 359.28572,424.50504 L 354.10714,425.57647 L 347.14286,420.3979 z" style="opacity: 0.423077; fill: none; fill-rule: evenodd; stroke: rgb(255, 255, 255); stroke-width: 7; stroke-linecap: butt; stroke-linejoin: round; stroke-miterlimit: 4; stroke-dasharray: none; stroke-opacity: 1;"/>
      <path style="opacity: 0.423077; fill: none; fill-rule: evenodd; stroke: rgb(255, 255, 255); stroke-width: 4.73536; stroke-linecap: butt; stroke-linejoin: round; stroke-miterlimit: 4; stroke-dasharray: none; stroke-opacity: 1;" d="M 326.01942,415.24281 L 321.40059,414.05174 C 328.17261,413.81958 327.5925,414.00559 334.08193,415.52182 C 330.77548,416.79882 335.00001,415.79379 334.2627,418.18748 L 328.77685,417.70215 L 326.01942,415.24281 z" id="path4520" sodipodi:nodetypes="cccccc"/>
      <path style="opacity: 0.423077; fill: none; fill-rule: evenodd; stroke: rgb(255, 255, 255); stroke-width: 5.48163; stroke-linecap: butt; stroke-linejoin: round; stroke-miterlimit: 4; stroke-dasharray: none; stroke-opacity: 1;" d="M 376.68493,425.55144 L 372.22621,425.17492 C 378.72617,419.24057 385.24423,412.57208 396.16665,416.2424 L 392.39103,418.75948 C 386.10507,417.93478 379.51664,423.75858 376.68493,425.55144 z" id="path4522" sodipodi:nodetypes="ccccc"/>
    </g>
  </g>
</svg>